<?xml version="1.0" encoding="UTF-8"?><svg xmlns="http://www.w3.org/2000/svg" xmlns:xlink="http://www.w3.org/1999/xlink" fill-opacity="1" color-rendering="auto" color-interpolation="auto" text-rendering="auto" stroke="black" stroke-linecap="square" width="876" stroke-miterlimit="10" shape-rendering="auto" stroke-opacity="1" fill="black" stroke-dasharray="none" font-weight="normal" stroke-width="1" height="581" font-family="'Dialog'" font-style="normal" stroke-linejoin="miter" font-size="12px" stroke-dashoffset="0" image-rendering="auto">
  <!--Generated by ySVG 2.5-->
  <defs id="genericDefs"/>
  <g>
    <g fill="white" text-rendering="geometricPrecision" shape-rendering="geometricPrecision" transform="translate(-746,238)" stroke="white">
      <rect x="746" width="876" height="581" y="-238" clip-path="url(#clipPath2)" stroke="none"/>
    </g>
    <g onmouseout="HideTooltip(evt)" id="y.node.0" onmousemove="ShowTooltip(evt)">
      <a target="_blank" xlink:type="simple" xlink:href="page_comp_net_management" xlink:show="new">
        <g fill="rgb(153,204,255)" text-rendering="geometricPrecision" shape-rendering="geometricPrecision" transform="matrix(1,0,0,1,-746,238)" stroke="rgb(153,204,255)">
          <rect x="762.8411" width="839.1712" height="54.0763" y="272.9619" stroke="none"/>
        </g>
        <g>
          <g text-rendering="geometricPrecision" stroke-miterlimit="1.45" shape-rendering="geometricPrecision" font-family="sans-serif" transform="matrix(1,0,0,1,-746,238)" stroke-linecap="butt">
            <text x="1136.4012" xml:space="preserve" y="304.7139" stroke="none">Net Management</text>
          </g>
        </g>
      </a>
    </g>
    <g onmouseout="HideTooltip(evt)" id="y.node.1" onmousemove="ShowTooltip(evt)">
      <a target="_blank" xlink:type="simple" xlink:href="page_comp_player_management" xlink:show="new">
        <g fill="rgb(153,204,255)" text-rendering="geometricPrecision" shape-rendering="geometricPrecision" transform="matrix(1,0,0,1,-746,238)" stroke="rgb(153,204,255)">
          <rect x="1475.8611" width="123.2778" height="54.0763" y="152.9619" stroke="none"/>
        </g>
        <g>
          <g text-rendering="geometricPrecision" stroke-miterlimit="1.45" shape-rendering="geometricPrecision" font-family="sans-serif" transform="matrix(1,0,0,1,-746,238)" stroke-linecap="butt">
            <text x="1520.4932" xml:space="preserve" y="177.3633" stroke="none">Player</text>
          </g>
          <g text-rendering="geometricPrecision" stroke-miterlimit="1.45" shape-rendering="geometricPrecision" font-family="sans-serif" transform="matrix(1,0,0,1,-746,238)" stroke-linecap="butt">
            <text x="1502.4785" xml:space="preserve" y="192.0645" stroke="none">Management</text>
          </g>
        </g>
      </a>
    </g>
    <g onmouseout="HideTooltip(evt)" id="y.node.2" onmousemove="ShowTooltip(evt)">
      <a target="_blank" xlink:type="simple" xlink:href="page_comp_level_management" xlink:show="new">
        <g fill="rgb(153,204,255)" text-rendering="geometricPrecision" shape-rendering="geometricPrecision" transform="matrix(1,0,0,1,-746,238)" stroke="rgb(153,204,255)">
          <rect x="761.9411" width="132.1178" height="54.0763" y="152.9619" stroke="none"/>
        </g>
        <g>
          <g text-rendering="geometricPrecision" stroke-miterlimit="1.45" shape-rendering="geometricPrecision" font-family="sans-serif" transform="matrix(1,0,0,1,-746,238)" stroke-linecap="butt">
            <text x="813.6562" xml:space="preserve" y="177.3633" stroke="none">Level</text>
            <text x="792.9785" xml:space="preserve" y="192.0645" stroke="none">Management</text>
          </g>
        </g>
      </a>
    </g>
    <g onmouseout="HideTooltip(evt)" id="y.node.3" onmousemove="ShowTooltip(evt)">
      <a target="_blank" xlink:type="simple" xlink:href="page_comp_game_management" xlink:show="new">
        <g fill="rgb(153,204,255)" text-rendering="geometricPrecision" shape-rendering="geometricPrecision" transform="matrix(1,0,0,1,-746,238)" stroke="rgb(153,204,255)">
          <rect x="1013.8611" width="132.2778" height="54.0763" y="152.9619" stroke="none"/>
        </g>
        <g>
          <g text-rendering="geometricPrecision" stroke-miterlimit="1.45" shape-rendering="geometricPrecision" font-family="sans-serif" transform="matrix(1,0,0,1,-746,238)" stroke-linecap="butt">
            <text x="1063.6611" xml:space="preserve" y="177.3633" stroke="none">Game</text>
            <text x="1044.9785" xml:space="preserve" y="192.0645" stroke="none">Management</text>
          </g>
        </g>
      </a>
    </g>
    <g onmouseout="HideTooltip(evt)" id="y.node.4" onmousemove="ShowTooltip(evt)">
      <a target="_blank" xlink:type="simple" xlink:href="page_comp_match_management" xlink:show="new">
        <g fill="rgb(153,204,255)" text-rendering="geometricPrecision" shape-rendering="geometricPrecision" transform="matrix(1,0,0,1,-746,238)" stroke="rgb(153,204,255)">
          <rect x="1243.8611" width="132.2778" height="54.0763" y="152.9619" stroke="none"/>
        </g>
        <g>
          <g text-rendering="geometricPrecision" stroke-miterlimit="1.45" shape-rendering="geometricPrecision" font-family="sans-serif" transform="matrix(1,0,0,1,-746,238)" stroke-linecap="butt">
            <text x="1293.6611" xml:space="preserve" y="177.3633" stroke="none">Match</text>
            <text x="1274.9785" xml:space="preserve" y="192.0645" stroke="none">Management</text>
          </g>
        </g>
      </a>
    </g>
    <g onmouseout="HideTooltip(evt)" id="y.node.5" onmousemove="ShowTooltip(evt)">
      <a target="_blank" xlink:type="simple" xlink:href="page_comp_char_control.html" xlink:show="new">
        <g fill="rgb(153,204,255)" text-rendering="geometricPrecision" shape-rendering="geometricPrecision" transform="matrix(1,0,0,1,-746,238)" stroke="rgb(153,204,255)">
          <rect x="1450.8611" width="151.2778" height="54.0763" y="-117.0381" stroke="none"/>
        </g>
        <g>
          <g text-rendering="geometricPrecision" stroke-miterlimit="1.45" shape-rendering="geometricPrecision" font-family="sans-serif" transform="matrix(1,0,0,1,-746,238)" stroke-linecap="butt">
            <text x="1500.1562" xml:space="preserve" y="-92.6367" stroke="none">Character</text>
            <text x="1507.1582" xml:space="preserve" y="-77.9355" stroke="none">Control</text>
          </g>
        </g>
      </a>
    </g>
    <g onmouseout="HideTooltip(evt)" id="y.node.6" onmousemove="ShowTooltip(evt)">
      <g fill="rgb(255,204,0)" text-rendering="geometricPrecision" shape-rendering="geometricPrecision" transform="matrix(1,0,0,1,-746,238)" stroke="rgb(255,204,0)">
        <rect x="762.8611" width="632.2778" height="54.0763" y="32.9619" stroke="none"/>
      </g>
      <g>
        <g text-rendering="geometricPrecision" stroke-miterlimit="1.45" shape-rendering="geometricPrecision" font-family="sans-serif" transform="matrix(1,0,0,1,-746,238)" stroke-linecap="butt">
          <text x="955.9414" xml:space="preserve" y="64.7139" stroke="none">Menu UI (Main Menu and Match Pause Menu)</text>
        </g>
      </g>
    </g>
    <g onmouseout="HideTooltip(evt)" id="y.node.7" onmousemove="ShowTooltip(evt)">
      <a target="_blank" xlink:type="simple" xlink:href="page_comp_ingame_ui" xlink:show="new">
        <g fill="rgb(255,204,0)" text-rendering="geometricPrecision" shape-rendering="geometricPrecision" transform="matrix(1,0,0,1,-746,238)" stroke="rgb(255,204,0)">
          <rect x="1429.5751" width="123.2778" height="54.0763" y="32.9619" stroke="none"/>
        </g>
        <g>
          <g text-rendering="geometricPrecision" stroke-miterlimit="1.45" shape-rendering="geometricPrecision" font-family="sans-serif" transform="matrix(1,0,0,1,-746,238)" stroke-linecap="butt">
            <text x="1460.2062" xml:space="preserve" y="64.7139" stroke="none">In-Game UI</text>
          </g>
        </g>
      </a>
    </g>
    <g id="y.node.8">
      <g text-rendering="geometricPrecision" shape-rendering="geometricPrecision" transform="matrix(1.4743,0,0,1.4523,550.7767,98)">
        <g>
          <svg xmlns:svg="http://www.w3.org/2000/svg" xmlns:sodipodi="http://sodipodi.sourceforge.net/DTD/sodipodi-0.dtd" xmlns:inkscape="http://www.inkscape.org/namespaces/inkscape" xmlns:dc="http://purl.org/dc/elements/1.1/" xmlns:cc="http://web.resource.org/cc/" xmlns:rdf="http://www.w3.org/1999/02/22-rdf-syntax-ns#" opacity="1" writing-mode="lr-tb" stop-color="rgb(0, 0, 0)" shape-rendering="auto" glyph-orientation-horizontal="0deg" color-profile="auto" lighting-color="rgb(255, 255, 255)" color="rgb(0, 0, 0)" font-weight="400" alignment-baseline="auto" font-style="normal" version="1.0" color-interpolation-filters="linearrgb" text-anchor="start" stroke-linecap="butt" color-interpolation="srgb" font-variant="normal" word-spacing="normal" fill-opacity="1" text-rendering="auto" clip-path="none" text-decoration="none" letter-spacing="normal" glyph-orientation-vertical="auto" display="inline" font-size-adjust="none" overflow="hidden" fill="rgb(0, 0, 0)" font-stretch="normal" stroke-dasharray="none" inkscape:version="0.45.1" id="svg1.svg2" stroke-miterlimit="4" stop-opacity="1" color-rendering="auto" font-size="12" sodipodi:docbase="C:\Daten\alberts\projects\yfx" pointer-events="visiblepainted" mask="none" direction="ltr" baseline-shift="baseline" sodipodi:docname="uml_actor.svg" enable-background="accumulate" fill-rule="nonzero" image-rendering="auto" stroke-dashoffset="0" inkscape:output_extension="org.inkscape.output.svg.inkscape" marker-end="none" width="41" clip="auto" cursor="auto" stroke="none" filter="none" visibility="visible" kerning="auto" stroke-width="1" font-family="&quot;Arial&quot;,&quot;Helvetica&quot;,sans-serif" flood-opacity="1" clip-rule="nonzero" src="none" height="68.997391" unicode-bidi="normal" sodipodi:version="0.32" stroke-linejoin="miter" stroke-opacity="1" flood-color="rgb(0, 0, 0)" dominant-baseline="auto" marker-start="none" marker-mid="none">
              
            <defs id="svg1.defs4">
              <clipPath clipPathUnits="userSpaceOnUse" id="clipPath1">
                <path d="M0 0 L876 0 L876 581 L0 581 L0 0 Z"/>
              </clipPath>
              <clipPath clipPathUnits="userSpaceOnUse" id="clipPath2">
                <path d="M746 -238 L1622 -238 L1622 343 L746 343 L746 -238 Z"/>
              </clipPath>
              <clipPath clipPathUnits="userSpaceOnUse" id="clipPath3">
                <path d="M0 0 L0 18 L87 18 L87 0 Z"/>
              </clipPath>
              <clipPath clipPathUnits="userSpaceOnUse" id="clipPath4">
                <path d="M0 0 L0 18 L93 18 L93 0 Z"/>
              </clipPath>
              <script type="text/ecmascript">
                <![CDATA[      var SVGDocument = null;
      var SVGRoot = null;
      var TrueCoords = null;
      var lastElement = null;
      var initialized = null;
      var tipGroup;
      function Init(evt)
      {
         SVGDocument = evt.target.ownerDocument;
         SVGRoot = SVGDocument.documentElement;
         TrueCoords = SVGRoot.createSVGPoint();
         initialized = evt;
      };
      function GetTrueCoords(evt)
      {
         var newScale = SVGRoot.currentScale;
         var translation = SVGRoot.currentTranslate;
         TrueCoords.x = (evt.clientX - translation.x)/newScale;
         TrueCoords.y = (evt.clientY - translation.y)/newScale;
      };
      function HideTooltip( evt )
      {
         if(initialized == null) {
           Init(evt);
         }
         if(tipGroup != null) {
           tipGroup.setAttributeNS(null, 'visibility', 'hidden');
         }
      };
      function ShowTooltip( evt )
      {
         if(initialized == null) {
           Init(evt);
         }
         GetTrueCoords( evt );
         var tipScale = 1/SVGRoot.currentScale;
         var targetElement = evt.currentTarget;
         if ( lastElement != targetElement )
         {
            var targetId = targetElement.getAttributeNS(null, 'id');
            var tipId = 'tooltip.' + targetId;
            tipGroup = SVGDocument.getElementById(tipId);
            var xPos = TrueCoords.x + (10 * tipScale);
            var yPos = TrueCoords.y + (10 * tipScale);
            tipGroup.setAttributeNS(null, 'transform', 'translate(' + xPos + ',' + yPos + ') scale(' + tipScale + ')');
            tipGroup.setAttributeNS(null, 'visibility', 'visible');
         }
      };
]]>
              </script>
            </defs>
              
  
            <metadata id="svg1.metadata7">
    
  </metadata>
              
            <g inkscape:groupmode="layer" id="svg1.layer1" transform="translate(-29.5,-42.959476)" inkscape:label="Ebene 1">
                  
              <a id="svg1.a3142" transform="matrix(1.0873906,0,0,1,-4.4741999,0)">
                      
                <path transform="translate(11.586889,5.2908993)" style="fill:none;fill-rule:evenodd;stroke:#000000;stroke-width:1px;stroke-linecap:butt;stroke-linejoin:miter;stroke-opacity:1" sodipodi:cx="38.509369" sodipodi:cy="47.36993" sodipodi:rx="8.5197716" id="svg1.path2160" d="M 47.02914 47.36993 A 8.5197716 9.2013531 0 1 1  29.989597,47.36993 A 8.5197716 9.2013531 0 1 1  47.02914 47.36993 z" sodipodi:ry="9.2013531" sodipodi:type="arc"/>
                    
              </a>
                  
              <path style="fill:none" sodipodi:cx="43.962021" sodipodi:cy="48.392303" d="M 47.71072 48.392303 A 3.7486994 0 0 1 1  40.213321,48.392303 A 3.7486994 0 0 1 1  47.71072 48.392303 z" id="svg1.path3134" sodipodi:rx="3.7486994" sodipodi:ry="0" sodipodi:type="arc"/>
                  
              <path style="fill:none;fill-rule:evenodd;stroke:#000000;stroke-width:1.24319649px;stroke-linecap:butt;stroke-linejoin:miter;stroke-opacity:1" d="M 50,61.33709 C 50,91.363211 50,92.247838 50,92.247838" id="svg1.path3136"/>
                  
              <path style="fill:none;fill-rule:evenodd;stroke:#000000;stroke-width:1px;stroke-linecap:butt;stroke-linejoin:miter;stroke-opacity:1" d="M 69.760668,72.362183 C 69.760668,72.362183 69.760668,72.362183 50.239332,72.362183 C 30.239332,72.362183 30.239332,72.362183 30.239332,72.362183 L 30.239332,72.362183" id="svg1.path3138"/>
                  
              <path style="fill:none;fill-rule:evenodd;stroke:#000000;stroke-width:1px;stroke-linecap:butt;stroke-linejoin:miter;stroke-opacity:1" d="M 30,111.45687 C 30,111.45687 30,111.45687 50,92.013532 C 70,111.45687 70,111.45687 70,111.45687" id="svg1.path3140"/>
                
            </g>
            
          </svg>
        </g>
      </g>
      <g>
        <g font-size="13px" stroke-linecap="butt" transform="matrix(1,0,0,1,-746,238)" text-rendering="geometricPrecision" font-family="sans-serif" shape-rendering="geometricPrecision" stroke-miterlimit="1.45">
          <text x="1308.5759" xml:space="preserve" y="-154.7549" stroke="none">Player</text>
        </g>
      </g>
    </g>
    <g onmouseout="HideTooltip(evt)" id="y.node.9" onmousemove="ShowTooltip(evt)">
      <g fill="rgb(153,204,255)" text-rendering="geometricPrecision" shape-rendering="geometricPrecision" transform="matrix(1,0,0,1,-746,238)" stroke="rgb(153,204,255)">
        <rect x="1448.8611" width="150.2778" height="54.0763" y="-222.6381" stroke="none"/>
      </g>
      <g>
        <g text-rendering="geometricPrecision" stroke-miterlimit="1.45" shape-rendering="geometricPrecision" font-family="sans-serif" transform="matrix(1,0,0,1,-746,238)" stroke-linecap="butt">
          <text x="1507.6611" xml:space="preserve" y="-198.2367" stroke="none">Game</text>
          <text x="1495.3213" xml:space="preserve" y="-183.5356" stroke="none">Mechanics</text>
        </g>
      </g>
    </g>
    <g id="y.edge.0">
      <g text-rendering="geometricPrecision" stroke-miterlimit="1.45" shape-rendering="geometricPrecision" transform="matrix(1,0,0,1,-746,238)" stroke-linecap="butt">
        <path fill="none" d="M1538.8221 261.9712 L1538.1135 218.0367"/>
        <path d="M1538.9995 272.9697 L1544.8053 260.8745 L1532.8068 261.068 Z" stroke="none"/>
        <path d="M1537.9362 207.0381 L1532.1304 219.1333 L1544.1289 218.9398 Z" stroke="none"/>
      </g>
      <g>
        <g text-rendering="geometricPrecision" stroke-miterlimit="1.45" shape-rendering="geometricPrecision" font-family="sans-serif" transform="matrix(1,0,0,1,-746,238)" stroke-linecap="butt">
          <text x="1466.4502" xml:space="preserve" y="237.3633" stroke="none">Player/Client</text>
          <text x="1476.4463" xml:space="preserve" y="252.0645" stroke="none">Changes</text>
        </g>
      </g>
    </g>
    <g id="y.edge.1">
      <g text-rendering="geometricPrecision" stroke-miterlimit="1.45" shape-rendering="geometricPrecision" transform="matrix(1,0,0,1,-746,238)" stroke-linecap="butt">
        <path fill="none" d="M828 218.0381 L828 261.9348"/>
        <path d="M828 207.0381 L822 219.0381 L834 219.0381 Z" stroke="none"/>
        <path d="M828 272.9348 L834 260.9348 L822 260.9348 Z" stroke="none"/>
      </g>
      <g>
        <g text-rendering="geometricPrecision" stroke-miterlimit="1.45" shape-rendering="geometricPrecision" font-family="sans-serif" transform="matrix(1,0,0,1,-746,238)" stroke-linecap="butt">
          <text x="840.9873" xml:space="preserve" y="237.3633" stroke="none">Scene</text>
          <text x="844.6611" xml:space="preserve" y="252.0645" stroke="none">Sync</text>
        </g>
      </g>
    </g>
    <g id="y.edge.6">
      <g text-rendering="geometricPrecision" stroke-miterlimit="1.45" shape-rendering="geometricPrecision" transform="matrix(1,0,0,1,-746,238)" stroke-linecap="butt">
        <path fill="none" d="M905.0589 180 L1002.8611 180"/>
        <path d="M894.0589 180 L906.0589 186 L906.0589 174 Z" stroke="none"/>
        <path d="M1013.8611 180 L1001.8611 174 L1001.8611 186 Z" stroke="none"/>
      </g>
      <g>
        <g text-rendering="geometricPrecision" stroke-miterlimit="1.45" shape-rendering="geometricPrecision" font-family="sans-serif" transform="matrix(1,0,0,1,-746,238)" stroke-linecap="butt">
          <text x="922.2755" xml:space="preserve" y="177.3633" stroke="none">Level select</text>
          <text x="909.5987" xml:space="preserve" y="192.0645" stroke="none">&amp; Scene request</text>
        </g>
      </g>
    </g>
    <g id="y.edge.2">
      <g text-rendering="geometricPrecision" stroke-miterlimit="1.45" shape-rendering="geometricPrecision" transform="matrix(1,0,0,1,-746,238)" stroke-linecap="butt">
        <path fill="none" d="M1082 218.0104 L1082 261.9606"/>
        <path d="M1082 207.0104 L1076 219.0104 L1088 219.0104 Z" stroke="none"/>
        <path d="M1082 272.9606 L1088 260.9606 L1076 260.9606 Z" stroke="none"/>
      </g>
      <g>
        <g text-rendering="geometricPrecision" stroke-miterlimit="1.45" shape-rendering="geometricPrecision" font-family="sans-serif" transform="matrix(1,0,0,1,-746,238)" stroke-linecap="butt">
          <text x="1012.8696" xml:space="preserve" y="237.3633" stroke="none">Game State</text>
          <text x="1031.5463" xml:space="preserve" y="252.0645" stroke="none">Sync</text>
        </g>
      </g>
    </g>
    <g id="y.edge.3">
      <g text-rendering="geometricPrecision" stroke-miterlimit="1.45" shape-rendering="geometricPrecision" transform="matrix(1,0,0,1,-746,238)" stroke-linecap="butt">
        <path fill="none" d="M1157.1389 180 L1232.8611 180"/>
        <path d="M1146.1389 180 L1158.1389 186 L1158.1389 174 Z" stroke="none"/>
        <path d="M1243.8611 180 L1231.8611 174 L1231.8611 186 Z" stroke="none"/>
      </g>
      <g>
        <g text-rendering="geometricPrecision" stroke-miterlimit="1.45" shape-rendering="geometricPrecision" font-family="sans-serif" transform="matrix(1,0,0,1,-746,238)" stroke-linecap="butt">
          <text x="1168.9902" xml:space="preserve" y="177.3633" stroke="none">Match Init</text>
          <text x="1178.6553" xml:space="preserve" y="192.0645" stroke="none">&amp; End</text>
        </g>
      </g>
    </g>
    <g id="y.edge.4">
      <g text-rendering="geometricPrecision" stroke-miterlimit="1.45" shape-rendering="geometricPrecision" transform="matrix(1,0,0,1,-746,238)" stroke-linecap="butt">
        <path fill="none" d="M1310 218.0381 L1310 261.9685"/>
        <path d="M1310 207.0381 L1304 219.0381 L1316 219.0381 Z" stroke="none"/>
        <path d="M1310 272.9685 L1316 260.9685 L1304 260.9685 Z" stroke="none"/>
      </g>
      <g>
        <g text-rendering="geometricPrecision" stroke-miterlimit="1.45" shape-rendering="geometricPrecision" font-family="sans-serif" transform="matrix(1,0,0,1,-746,238)" stroke-linecap="butt">
          <text x="1239.9844" xml:space="preserve" y="237.3633" stroke="none">Match State</text>
          <text x="1258.6611" xml:space="preserve" y="252.0645" stroke="none">Sync</text>
        </g>
      </g>
    </g>
    <g id="y.edge.14">
      <g text-rendering="geometricPrecision" stroke-miterlimit="1.45" shape-rendering="geometricPrecision" transform="matrix(1,0,0,1,-746,238)" stroke-linecap="butt">
        <path fill="none" d="M1387.1389 180 L1475.8611 180"/>
        <path d="M1376.1389 180 L1388.1389 186 L1388.1389 174 Z" stroke="none"/>
      </g>
      <g>
        <g text-rendering="geometricPrecision" stroke-miterlimit="1.45" shape-rendering="geometricPrecision" font-family="sans-serif" transform="matrix(1,0,0,1,-746,238)" stroke-linecap="butt">
          <text x="1394.3213" xml:space="preserve" y="177.3633" stroke="none">Player Char</text>
          <text x="1393.6445" xml:space="preserve" y="192.0645" stroke="none">Instantiation</text>
        </g>
      </g>
    </g>
    <g id="y.edge.5">
      <g text-rendering="geometricPrecision" stroke-miterlimit="1.45" shape-rendering="geometricPrecision" transform="matrix(1,0,0,1,-746,238)" stroke-linecap="butt">
        <path fill="none" d="M1572.8529 152.9532 L1572.8529 -51.9716"/>
        <path d="M1572.8529 -62.9716 L1566.8529 -50.9716 L1578.8529 -50.9716 Z" stroke="none"/>
      </g>
      <g>
        <g text-rendering="geometricPrecision" stroke-miterlimit="1.45" shape-rendering="geometricPrecision" font-family="sans-serif" transform="matrix(1,0,0,1,-746,238)" stroke-linecap="butt">
          <text x="1578.848" xml:space="preserve" y="42.3633" stroke="none">Char</text>
          <text x="1583.849" xml:space="preserve" y="57.0645" stroke="none">Init</text>
        </g>
      </g>
    </g>
    <g id="y.edge.7">
      <g text-rendering="geometricPrecision" stroke-miterlimit="1.45" shape-rendering="geometricPrecision" transform="matrix(1,0,0,1,-746,238)" stroke-linecap="butt">
        <path fill="none" d="M1467.5884 147.6847 L1403.3931 91.2836"/>
        <path d="M1475.8519 154.945 L1470.7972 142.5172 L1462.8768 151.5321 Z" stroke="none"/>
        <path d="M1395.1295 84.0232 L1400.1842 96.451 L1408.1045 87.4362 Z" stroke="none"/>
      </g>
      <g>
        <g text-rendering="geometricPrecision" stroke-miterlimit="1.45" shape-rendering="geometricPrecision" font-family="sans-serif" transform="matrix(1,0,0,1,-746,238)" stroke-linecap="butt">
          <text x="1352.9144" xml:space="preserve" y="123.1026" stroke="none">Player Display</text>
          <text x="1347.5765" xml:space="preserve" y="137.8038" stroke="none">&amp; Customization</text>
        </g>
      </g>
    </g>
    <g id="y.edge.9">
      <g text-rendering="geometricPrecision" stroke-miterlimit="1.45" shape-rendering="geometricPrecision" transform="matrix(1,0,0,1,-746,238)" stroke-linecap="butt">
        <path fill="none" d="M1079.5908 141.9625 L1079.1183 98.0375"/>
        <path d="M1079.7091 152.9619 L1085.5797 140.898 L1073.5804 141.0271 Z" stroke="none"/>
        <path d="M1079 87.0381 L1073.1294 99.102 L1085.1287 98.9729 Z" stroke="none"/>
      </g>
      <g>
        <g text-rendering="geometricPrecision" stroke-miterlimit="1.45" shape-rendering="geometricPrecision" font-family="sans-serif" transform="matrix(1,0,0,1,-746,238)" stroke-linecap="butt">
          <text x="1034.344" xml:space="preserve" y="117.3633" stroke="none">Menu</text>
          <text x="1035.009" xml:space="preserve" y="132.0645" stroke="none">Logic</text>
        </g>
      </g>
    </g>
    <g id="y.edge.17">
      <g text-rendering="geometricPrecision" stroke-miterlimit="1.45" shape-rendering="geometricPrecision" transform="matrix(1,0,0,1,-746,238)" stroke-linecap="butt">
        <path fill="none" d="M1310 141.9619 L1310 98.0107"/>
        <path d="M1310 152.9619 L1316 140.9619 L1304 140.9619 Z" stroke="none"/>
        <path d="M1310 87.0107 L1304 99.0107 L1316 99.0107 Z" stroke="none"/>
      </g>
      <g>
        <g text-rendering="geometricPrecision" stroke-miterlimit="1.45" shape-rendering="geometricPrecision" font-family="sans-serif" transform="matrix(1,0,0,1,-746,238)" stroke-linecap="butt">
          <text x="1262.9873" xml:space="preserve" y="113.9228" stroke="none">Pause</text>
          <text x="1264.9912" xml:space="preserve" y="128.624" stroke="none">Menu</text>
          <text x="1265.6562" xml:space="preserve" y="143.3251" stroke="none">Logic</text>
        </g>
      </g>
    </g>
    <g id="y.edge.8">
      <g text-rendering="geometricPrecision" stroke-miterlimit="1.45" shape-rendering="geometricPrecision" transform="matrix(1,0,0,1,-746,238)" stroke-linecap="butt">
        <path fill="none" d="M828 98.0688 L828 141.9619"/>
        <path d="M828 87.0688 L822 99.0688 L834 99.0688 Z" stroke="none"/>
        <path d="M828 152.9619 L834 140.9619 L822 140.9619 Z" stroke="none"/>
      </g>
      <g>
        <g text-rendering="geometricPrecision" stroke-miterlimit="1.45" shape-rendering="geometricPrecision" font-family="sans-serif" transform="matrix(1,0,0,1,-746,238)" stroke-linecap="butt">
          <text x="843.6562" xml:space="preserve" y="117.3633" stroke="none">Level</text>
          <text x="833.3174" xml:space="preserve" y="132.0645" stroke="none">Selection</text>
        </g>
      </g>
    </g>
    <g id="y.edge.15">
      <g text-rendering="geometricPrecision" stroke-miterlimit="1.45" shape-rendering="geometricPrecision" transform="matrix(1,0,0,1,-746,238)" stroke-linecap="butt">
        <path fill="none" d="M1506.6039 -62.9695 L1506.6039 21.9829"/>
        <path d="M1506.6039 32.9829 L1512.6039 20.9829 L1500.6039 20.9829 Z" stroke="none"/>
      </g>
      <g>
        <g text-rendering="geometricPrecision" stroke-miterlimit="1.45" shape-rendering="geometricPrecision" font-family="sans-serif" transform="matrix(1,0,0,1,-746,238)" stroke-linecap="butt">
          <text x="1475.599" xml:space="preserve" y="-17.6367" stroke="none">Char</text>
          <text x="1474.931" xml:space="preserve" y="-2.9355" stroke="none">Stats</text>
        </g>
      </g>
    </g>
    <g id="y.edge.18">
      <g text-rendering="geometricPrecision" stroke-miterlimit="1.45" shape-rendering="geometricPrecision" transform="matrix(1,0,0,1,-746,238)" stroke-linecap="butt">
        <path fill="none" d="M1376.1389 164.3426 L1432.5 151 L1481.9672 95.2623"/>
        <path d="M1489.2688 87.0352 L1476.8158 92.0275 L1485.7909 99.993 Z" stroke="none"/>
      </g>
      <g>
        <g text-rendering="geometricPrecision" stroke-miterlimit="1.45" shape-rendering="geometricPrecision" font-family="sans-serif" transform="matrix(1,0,0,1,-746,238)" stroke-linecap="butt">
          <text x="1470.1056" xml:space="preserve" y="118.2832" stroke="none">Match</text>
          <text x="1476.4366" xml:space="preserve" y="132.9844" stroke="none">Info</text>
        </g>
      </g>
    </g>
    <g id="y.edge.16">
      <g text-rendering="geometricPrecision" stroke-miterlimit="1.45" shape-rendering="geometricPrecision" transform="matrix(1,0,0,1,-746,238)" stroke-linecap="butt">
        <path fill="none" d="M1515.7072 98.0513 L1515.7072 152.9376"/>
        <path d="M1515.7072 87.0513 L1509.7072 99.0513 L1521.7072 99.0513 Z" stroke="none"/>
      </g>
      <g>
        <g text-rendering="geometricPrecision" stroke-miterlimit="1.45" shape-rendering="geometricPrecision" font-family="sans-serif" transform="matrix(1,0,0,1,-746,238)" stroke-linecap="butt">
          <text x="1517.7515" xml:space="preserve" y="119.0672" stroke="none">Player</text>
          <text x="1524.7505" xml:space="preserve" y="133.7684" stroke="none">Info</text>
        </g>
      </g>
    </g>
    <g id="y.edge.10">
      <g text-rendering="geometricPrecision" stroke-miterlimit="1.45" shape-rendering="geometricPrecision" transform="matrix(1,0,0,1,-746,238)" stroke-linecap="butt">
        <path fill="none" d="M1327 -28.9626 L1327 21.9379"/>
        <path d="M1327 -39.9626 L1321 -27.9626 L1333 -27.9626 Z" stroke="none"/>
        <path d="M1327 32.9379 L1333 20.9379 L1321 20.9379 Z" stroke="none"/>
      </g>
    </g>
    <g id="y.edge.11">
      <g text-rendering="geometricPrecision" stroke-miterlimit="1.45" shape-rendering="geometricPrecision" transform="matrix(1,0,0,1,-746,238)" stroke-linecap="butt">
        <path fill="none" d="M1364.375 -35.3162 L1429.5895 36.8887"/>
        <path d="M1357.002 -43.4795 L1360.5925 -30.5524 L1369.4979 -38.5957 Z" stroke="none"/>
      </g>
    </g>
    <g id="y.edge.12">
      <g text-rendering="geometricPrecision" stroke-miterlimit="1.45" shape-rendering="geometricPrecision" transform="matrix(1,0,0,1,-746,238)" stroke-linecap="butt">
        <path fill="none" d="M1356.9542 -90 L1439.8611 -90"/>
        <path d="M1450.8611 -90 L1438.8611 -96 L1438.8611 -84 Z" stroke="none"/>
      </g>
    </g>
    <g id="y.edge.13">
      <g text-rendering="geometricPrecision" stroke-miterlimit="1.45" shape-rendering="geometricPrecision" transform="matrix(1,0,0,1,-746,238)" stroke-linecap="butt">
        <path fill="none" d="M1524 -157.5619 L1524 -128.0699"/>
        <path d="M1524 -168.5619 L1518 -156.5619 L1530 -156.5619 Z" stroke="none"/>
        <path d="M1524 -117.0699 L1530 -129.0699 L1518 -129.0699 Z" stroke="none"/>
      </g>
      <g>
        <g text-rendering="geometricPrecision" stroke-miterlimit="1.45" shape-rendering="geometricPrecision" font-family="sans-serif" transform="matrix(1,0,0,1,-746,238)" stroke-linecap="butt">
          <text x="1477.6611" xml:space="preserve" y="-145.4367" stroke="none">Game</text>
          <text x="1465.9834" xml:space="preserve" y="-130.7355" stroke="none">Interaction</text>
        </g>
      </g>
    </g>
    <g visibility="hidden" id="tooltip.y.node.0" pointer-events="none">
      <g fill="rgb(255,255,225)" text-rendering="geometricPrecision" shape-rendering="geometricPrecision" font-family="'Segoe UI'" stroke="rgb(255,255,225)">
        <rect x="0" width="87" height="18" y="0" clip-path="url(#clipPath3)" stroke="none"/>
        <text fill="black" x="4" xml:space="preserve" y="14" clip-path="url(#clipPath3)" stroke="none">click for details</text>
      </g>
      <g font-family="'Segoe UI'" text-rendering="geometricPrecision" shape-rendering="geometricPrecision">
        <path d="M0 0 L87 0 L87 18 L0 18 L0 0 ZM1 1 L86 1 L86 17 L1 17 L1 1 Z" fill-rule="evenodd" clip-path="url(#clipPath3)" stroke="none"/>
      </g>
    </g>
    <g visibility="hidden" id="tooltip.y.node.1" pointer-events="none">
      <g fill="rgb(255,255,225)" text-rendering="geometricPrecision" shape-rendering="geometricPrecision" font-family="'Segoe UI'" stroke="rgb(255,255,225)">
        <rect x="0" width="87" height="18" y="0" clip-path="url(#clipPath3)" stroke="none"/>
        <text fill="black" x="4" xml:space="preserve" y="14" clip-path="url(#clipPath3)" stroke="none">click for details</text>
      </g>
      <g font-family="'Segoe UI'" text-rendering="geometricPrecision" shape-rendering="geometricPrecision">
        <path d="M0 0 L87 0 L87 18 L0 18 L0 0 ZM1 1 L86 1 L86 17 L1 17 L1 1 Z" fill-rule="evenodd" clip-path="url(#clipPath3)" stroke="none"/>
      </g>
    </g>
    <g visibility="hidden" id="tooltip.y.node.2" pointer-events="none">
      <g fill="rgb(255,255,225)" text-rendering="geometricPrecision" shape-rendering="geometricPrecision" font-family="'Segoe UI'" stroke="rgb(255,255,225)">
        <rect x="0" width="87" height="18" y="0" clip-path="url(#clipPath3)" stroke="none"/>
        <text fill="black" x="4" xml:space="preserve" y="14" clip-path="url(#clipPath3)" stroke="none">click for details</text>
      </g>
      <g font-family="'Segoe UI'" text-rendering="geometricPrecision" shape-rendering="geometricPrecision">
        <path d="M0 0 L87 0 L87 18 L0 18 L0 0 ZM1 1 L86 1 L86 17 L1 17 L1 1 Z" fill-rule="evenodd" clip-path="url(#clipPath3)" stroke="none"/>
      </g>
    </g>
    <g visibility="hidden" id="tooltip.y.node.3" pointer-events="none">
      <g fill="rgb(255,255,225)" text-rendering="geometricPrecision" shape-rendering="geometricPrecision" font-family="'Segoe UI'" stroke="rgb(255,255,225)">
        <rect x="0" width="87" height="18" y="0" clip-path="url(#clipPath3)" stroke="none"/>
        <text fill="black" x="4" xml:space="preserve" y="14" clip-path="url(#clipPath3)" stroke="none">click for details</text>
      </g>
      <g font-family="'Segoe UI'" text-rendering="geometricPrecision" shape-rendering="geometricPrecision">
        <path d="M0 0 L87 0 L87 18 L0 18 L0 0 ZM1 1 L86 1 L86 17 L1 17 L1 1 Z" fill-rule="evenodd" clip-path="url(#clipPath3)" stroke="none"/>
      </g>
    </g>
    <g visibility="hidden" id="tooltip.y.node.4" pointer-events="none">
      <g fill="rgb(255,255,225)" text-rendering="geometricPrecision" shape-rendering="geometricPrecision" font-family="'Segoe UI'" stroke="rgb(255,255,225)">
        <rect x="0" width="87" height="18" y="0" clip-path="url(#clipPath3)" stroke="none"/>
        <text fill="black" x="4" xml:space="preserve" y="14" clip-path="url(#clipPath3)" stroke="none">click for details</text>
      </g>
      <g font-family="'Segoe UI'" text-rendering="geometricPrecision" shape-rendering="geometricPrecision">
        <path d="M0 0 L87 0 L87 18 L0 18 L0 0 ZM1 1 L86 1 L86 17 L1 17 L1 1 Z" fill-rule="evenodd" clip-path="url(#clipPath3)" stroke="none"/>
      </g>
    </g>
    <g visibility="hidden" id="tooltip.y.node.5" pointer-events="none">
      <g fill="rgb(255,255,225)" text-rendering="geometricPrecision" shape-rendering="geometricPrecision" font-family="'Segoe UI'" stroke="rgb(255,255,225)">
        <rect x="0" width="87" height="18" y="0" clip-path="url(#clipPath3)" stroke="none"/>
        <text fill="black" x="4" xml:space="preserve" y="14" clip-path="url(#clipPath3)" stroke="none">click for details</text>
      </g>
      <g font-family="'Segoe UI'" text-rendering="geometricPrecision" shape-rendering="geometricPrecision">
        <path d="M0 0 L87 0 L87 18 L0 18 L0 0 ZM1 1 L86 1 L86 17 L1 17 L1 1 Z" fill-rule="evenodd" clip-path="url(#clipPath3)" stroke="none"/>
      </g>
    </g>
    <g visibility="hidden" id="tooltip.y.node.6" pointer-events="none">
      <g fill="rgb(255,255,225)" text-rendering="geometricPrecision" shape-rendering="geometricPrecision" font-family="'Segoe UI'" stroke="rgb(255,255,225)">
        <rect x="0" width="93" height="18" y="0" clip-path="url(#clipPath4)" stroke="none"/>
        <text fill="black" x="4" xml:space="preserve" y="14" clip-path="url(#clipPath4)" stroke="none">Links: see below</text>
      </g>
      <g font-family="'Segoe UI'" text-rendering="geometricPrecision" shape-rendering="geometricPrecision">
        <path d="M0 0 L93 0 L93 18 L0 18 L0 0 ZM1 1 L92 1 L92 17 L1 17 L1 1 Z" fill-rule="evenodd" clip-path="url(#clipPath4)" stroke="none"/>
      </g>
    </g>
    <g visibility="hidden" id="tooltip.y.node.7" pointer-events="none">
      <g fill="rgb(255,255,225)" text-rendering="geometricPrecision" shape-rendering="geometricPrecision" font-family="'Segoe UI'" stroke="rgb(255,255,225)">
        <rect x="0" width="87" height="18" y="0" clip-path="url(#clipPath3)" stroke="none"/>
        <text fill="black" x="4" xml:space="preserve" y="14" clip-path="url(#clipPath3)" stroke="none">click for details</text>
      </g>
      <g font-family="'Segoe UI'" text-rendering="geometricPrecision" shape-rendering="geometricPrecision">
        <path d="M0 0 L87 0 L87 18 L0 18 L0 0 ZM1 1 L86 1 L86 17 L1 17 L1 1 Z" fill-rule="evenodd" clip-path="url(#clipPath3)" stroke="none"/>
      </g>
    </g>
    <g visibility="hidden" id="tooltip.y.node.9" pointer-events="none">
      <g fill="rgb(255,255,225)" text-rendering="geometricPrecision" shape-rendering="geometricPrecision" font-family="'Segoe UI'" stroke="rgb(255,255,225)">
        <rect x="0" width="93" height="18" y="0" clip-path="url(#clipPath4)" stroke="none"/>
        <text fill="black" x="4" xml:space="preserve" y="14" clip-path="url(#clipPath4)" stroke="none">Links: see below</text>
      </g>
      <g font-family="'Segoe UI'" text-rendering="geometricPrecision" shape-rendering="geometricPrecision">
        <path d="M0 0 L93 0 L93 18 L0 18 L0 0 ZM1 1 L92 1 L92 17 L1 17 L1 1 Z" fill-rule="evenodd" clip-path="url(#clipPath4)" stroke="none"/>
      </g>
    </g>
  </g>
</svg>
