<?xml version="1.0" encoding="UTF-8"?><svg xmlns="http://www.w3.org/2000/svg" xmlns:xlink="http://www.w3.org/1999/xlink" fill-opacity="1" color-rendering="auto" color-interpolation="auto" text-rendering="auto" stroke="black" stroke-linecap="square" width="427" stroke-miterlimit="10" shape-rendering="auto" stroke-opacity="1" fill="black" stroke-dasharray="none" font-weight="normal" stroke-width="1" height="352" font-family="'Dialog'" font-style="normal" stroke-linejoin="miter" font-size="12px" stroke-dashoffset="0" image-rendering="auto">
  <!--Generated by ySVG 2.5-->
  <defs id="genericDefs"/>
  <g>
    <defs id="defs1">
      <clipPath clipPathUnits="userSpaceOnUse" id="clipPath1">
        <path d="M0 0 L427 0 L427 352 L0 352 L0 0 Z"/>
      </clipPath>
      <clipPath clipPathUnits="userSpaceOnUse" id="clipPath2">
        <path d="M292 -253 L719 -253 L719 99 L292 99 L292 -253 Z"/>
      </clipPath>
    </defs>
    <g fill="white" text-rendering="geometricPrecision" shape-rendering="geometricPrecision" transform="translate(-292,253)" stroke="white">
      <rect x="292" width="427" height="352" y="-253" clip-path="url(#clipPath2)" stroke="none"/>
    </g>
    <g fill="rgb(104,176,227)" text-rendering="geometricPrecision" shape-rendering="geometricPrecision" transform="matrix(1,0,0,1,-292,253)" stroke="rgb(104,176,227)">
      <path d="M307.6971 -237.3633 L307.6971 83.6221 L703.1189 83.6221 L703.1189 -237.3633 ZM308.6971 -215.3633 L308.6971 82.6221 L702.1189 82.6221 L702.1189 -215.3633 Z" fill-rule="evenodd" clip-path="url(#clipPath2)" stroke="none"/>
    </g>
    <g stroke-linecap="butt" transform="matrix(1,0,0,1,-292,253)" fill="white" text-rendering="geometricPrecision" font-family="sans-serif" shape-rendering="geometricPrecision" stroke="white" stroke-miterlimit="1.45">
      <text x="309.6971" xml:space="preserve" y="-223.2989" clip-path="url(#clipPath2)" stroke="none">SW Arch Concept</text>
    </g>
    <g fill="rgb(255,153,0)" text-rendering="geometricPrecision" shape-rendering="geometricPrecision" transform="matrix(1,0,0,1,-292,253)" stroke="rgb(255,153,0)">
      <rect x="622.0731" width="66.0458" height="174.0763" y="-143.0381" clip-path="url(#clipPath2)" stroke="none"/>
    </g>
    <g text-rendering="geometricPrecision" stroke-miterlimit="1.45" shape-rendering="geometricPrecision" font-family="sans-serif" transform="matrix(1,0,0,1,-292,253)" stroke-linecap="butt">
      <text x="634.4212" xml:space="preserve" y="-73.3379" clip-path="url(#clipPath2)" stroke="none">Helpers</text>
      <text x="651.0941" xml:space="preserve" y="-58.6367" clip-path="url(#clipPath2)" stroke="none">&amp;</text>
      <text x="639.4222" xml:space="preserve" y="-43.9355" clip-path="url(#clipPath2)" stroke="none">Editor</text>
      <text x="625.7464" xml:space="preserve" y="-29.2344" clip-path="url(#clipPath2)" stroke="none">Extensions</text>
    </g>
    <g fill="rgb(204,255,204)" text-rendering="geometricPrecision" shape-rendering="geometricPrecision" transform="matrix(1,0,0,1,-292,253)" stroke="rgb(204,255,204)">
      <rect x="382.4891" width="112.5098" height="54.0763" y="-23.0381" clip-path="url(#clipPath2)" stroke="none"/>
    </g>
    <g text-rendering="geometricPrecision" stroke-miterlimit="1.45" shape-rendering="geometricPrecision" font-family="sans-serif" transform="matrix(1,0,0,1,-292,253)" stroke-linecap="butt">
      <text x="405.7264" xml:space="preserve" y="1.3633" clip-path="url(#clipPath2)" stroke="none">Classes and</text>
      <text x="397.0604" xml:space="preserve" y="16.0645" clip-path="url(#clipPath2)" stroke="none">Data Structures</text>
    </g>
    <g fill="rgb(204,255,204)" text-rendering="geometricPrecision" shape-rendering="geometricPrecision" transform="matrix(1,0,0,1,-292,253)" stroke="rgb(204,255,204)">
      <rect x="501.4651" width="115.0698" height="54.0763" y="-23.0381" clip-path="url(#clipPath2)" stroke="none"/>
    </g>
    <g text-rendering="geometricPrecision" stroke-miterlimit="1.45" shape-rendering="geometricPrecision" font-family="sans-serif" transform="matrix(1,0,0,1,-292,253)" stroke-linecap="butt">
      <text x="532.3193" xml:space="preserve" y="1.3633" clip-path="url(#clipPath2)" stroke="none">Scriptable</text>
      <text x="510.3145" xml:space="preserve" y="16.0645" clip-path="url(#clipPath2)" stroke="none">Object (Instances)</text>
    </g>
    <g fill="rgb(153,204,255)" text-rendering="geometricPrecision" shape-rendering="geometricPrecision" transform="matrix(1,0,0,1,-292,253)" stroke="rgb(153,204,255)">
      <rect x="382.4891" width="112.5098" height="54.0763" y="-83.0381" clip-path="url(#clipPath2)" stroke="none"/>
    </g>
    <g text-rendering="geometricPrecision" stroke-miterlimit="1.45" shape-rendering="geometricPrecision" font-family="sans-serif" transform="matrix(1,0,0,1,-292,253)" stroke-linecap="butt">
      <text x="423.7352" xml:space="preserve" y="-58.6367" clip-path="url(#clipPath2)" stroke="none">Mono</text>
      <text x="408.7264" xml:space="preserve" y="-43.9355" clip-path="url(#clipPath2)" stroke="none">Behaviours</text>
    </g>
    <g fill="rgb(153,204,255)" text-rendering="geometricPrecision" shape-rendering="geometricPrecision" transform="matrix(1,0,0,1,-292,253)" stroke="rgb(153,204,255)">
      <rect x="501.4651" width="115.0698" height="54.0763" y="-83.0381" clip-path="url(#clipPath2)" stroke="none"/>
    </g>
    <g text-rendering="geometricPrecision" stroke-miterlimit="1.45" shape-rendering="geometricPrecision" font-family="sans-serif" transform="matrix(1,0,0,1,-292,253)" stroke-linecap="butt">
      <text x="522.3115" xml:space="preserve" y="-58.6367" clip-path="url(#clipPath2)" stroke="none">StateMachine</text>
      <text x="528.9824" xml:space="preserve" y="-43.9355" clip-path="url(#clipPath2)" stroke="none">Behaviours</text>
    </g>
    <g fill="rgb(255,204,0)" text-rendering="geometricPrecision" shape-rendering="geometricPrecision" transform="matrix(1,0,0,1,-292,253)" stroke="rgb(255,204,0)">
      <rect x="382.4891" width="234.0458" height="54.0763" y="-143.0381" clip-path="url(#clipPath2)" stroke="none"/>
    </g>
    <g text-rendering="geometricPrecision" stroke-miterlimit="1.45" shape-rendering="geometricPrecision" font-family="sans-serif" transform="matrix(1,0,0,1,-292,253)" stroke-linecap="butt">
      <text x="464.1653" xml:space="preserve" y="-118.6367" clip-path="url(#clipPath2)" stroke="none">Game Object</text>
      <text x="445.8167" xml:space="preserve" y="-103.9355" clip-path="url(#clipPath2)" stroke="none">Prefabs &amp; Instances</text>
    </g>
    <g fill="rgb(204,153,255)" text-rendering="geometricPrecision" shape-rendering="geometricPrecision" transform="matrix(1,0,0,1,-292,253)" stroke="rgb(204,153,255)">
      <rect x="322.6971" width="52.6058" height="212.2843" y="-143.6621" clip-path="url(#clipPath2)" stroke="none"/>
    </g>
    <g text-rendering="geometricPrecision" stroke-miterlimit="1.45" shape-rendering="geometricPrecision" font-family="sans-serif" transform="matrix(1,0,0,1,-292,253)" stroke-linecap="butt">
      <text x="330.3174" xml:space="preserve" y="-40.1567" clip-path="url(#clipPath2)" stroke="none">Engine</text>
      <text x="325.3223" xml:space="preserve" y="-25.4555" clip-path="url(#clipPath2)" stroke="none">Features</text>
    </g>
    <g fill="silver" text-rendering="geometricPrecision" shape-rendering="geometricPrecision" transform="matrix(1,0,0,1,-292,253)" stroke="silver">
      <rect x="382.4891" width="305.6298" height="31.0363" y="37.5859" clip-path="url(#clipPath2)" stroke="none"/>
    </g>
    <g text-rendering="geometricPrecision" stroke-miterlimit="1.45" shape-rendering="geometricPrecision" font-family="sans-serif" transform="matrix(1,0,0,1,-292,253)" stroke-linecap="butt">
      <text x="527.6341" xml:space="preserve" y="57.8179" clip-path="url(#clipPath2)" stroke="none">C#</text>
    </g>
    <g fill="rgb(255,153,153)" text-rendering="geometricPrecision" shape-rendering="geometricPrecision" transform="matrix(1,0,0,1,-292,253)" stroke="rgb(255,153,153)">
      <rect x="322.6971" width="365.4218" height="54.0763" y="-203.6621" clip-path="url(#clipPath2)" stroke="none"/>
    </g>
    <g text-rendering="geometricPrecision" stroke-miterlimit="1.45" shape-rendering="geometricPrecision" font-family="sans-serif" transform="matrix(1,0,0,1,-292,253)" stroke-linecap="butt">
      <text x="433.7097" xml:space="preserve" y="-171.9101" clip-path="url(#clipPath2)" stroke="none">SW Component or Feature</text>
    </g>
  </g>
</svg>
